# xmcd
#
# Track frame offsets: 
#        150
#        7725
#        27675
#        43350
#        54000
#        69825
#        92475
#        109425
#        124650
#        138600
#        151500
#        164700
#        168675
#        183900
#
# Disc length: 2700 seconds
#
# Revision: 1
# Processed by: cddbd v1.5.2PL0 Copyright (c) Steve Scherf et al.
# Submitted via: ExactAudioCopy v1.3
#
DISCID=b60a8a0e
DTITLE=The Dudis - The Dudis
DYEAR=1987
DGENRE=Rock
TTITLE0=Sygnał I
TTITLE1=Tutaj cacy
TTITLE2=Nocny kozak
TTITLE3=Mój brzuch
TTITLE4=Bzyk, bzyk
TTITLE5=U Biednych
TTITLE6=Wykonaj to własnoręcznie
TTITLE7=J.Z.
TTITLE8=Wakacje na własny rachunek
TTITLE9=Miasteczko N.
TTITLE10=Chwila spokoju
TTITLE11=Sygnał II
TTITLE12=The House Of The Rising Sun
TTITLE13=Gloria
EXTD=
EXTT0=
EXTT1=
EXTT2=
EXTT3=
EXTT4=
EXTT5=
EXTT6=
EXTT7=
EXTT8=
EXTT9=
EXTT10=
EXTT11=
EXTT12=
EXTT13=
PLAYORDER=
